<svg xmlns="http://www.w3.org/2000/svg" xmlns:xlink="http://www.w3.org/1999/xlink" width="581" zoomAndPan="magnify" viewBox="0 0 435.75 114.749999" height="153" preserveAspectRatio="xMidYMid meet" version="1.2"><defs><clipPath id="7bc14eddf8"><path d="M 0.347656 0 L 435.152344 0 L 435.152344 114.5 L 0.347656 114.5 Z M 0.347656 0 "/></clipPath><clipPath id="28b04c0be3"><path d="M 0.347656 0 L 160.5 0 L 160.5 114.5 L 0.347656 114.5 Z M 0.347656 0 "/></clipPath></defs><g id="aec0ee2654"><g clip-rule="nonzero" clip-path="url(#7bc14eddf8)"><path style=" stroke:none;fill-rule:nonzero;fill-opacity:0;" d="M 0.347656 0 L 435.152344 0 L 435.152344 114.5 L 0.347656 114.5 Z M 0.347656 0 "/></g><path style=" stroke:none;fill-rule:nonzero;fill:#ff6d4d;fill-opacity:1;" d="M 158.722656 28.257812 L 148.882812 98.078125 C 148.183594 103.027344 145.078125 108.589844 140.730469 111.136719 C 139.203125 112.039062 137.484375 112.480469 135.585938 112.480469 L 75.441406 112.480469 C 75.722656 110.492188 76.882812 101.039062 78.429688 88.421875 L 73.5625 88.421875 L 70.195312 112.480469 L 39.960938 112.480469 L 43.289062 88.421875 L 2.171875 88.421875 L 14.316406 1.683594 L 44.550781 1.683594 L 37.113281 55.179688 C 36.796875 57.292969 36.796875 59.1875 37.113281 60.882812 C 37.429688 62.574219 38.90625 63.414062 41.542969 63.414062 L 46.925781 63.414062 L 55.476562 1.683594 L 85.710938 1.683594 L 77.070312 63.414062 L 81.480469 63.414062 C 85.078125 33.824219 88.957031 1.890625 89.0625 1.683594 L 135.675781 1.683594 C 148.414062 1.683594 160.609375 14.9375 158.734375 28.257812 Z M 121.339844 79.238281 L 127.515625 34.921875 C 127.621094 33.867188 127.726562 32.835938 127.835938 31.832031 C 127.941406 30.828125 127.859375 29.960938 127.597656 29.21875 C 127.332031 28.480469 126.855469 27.878906 126.175781 27.402344 C 125.488281 26.925781 124.460938 26.6875 123.085938 26.6875 L 117.703125 26.6875 L 109.152344 87.464844 L 114.535156 87.464844 C 117.175781 87.464844 118.886719 86.621094 119.679688 84.933594 C 120.472656 83.246094 121.023438 81.347656 121.339844 79.234375 Z M 121.339844 79.238281 "/><g clip-rule="nonzero" clip-path="url(#28b04c0be3)"><path style="fill:none;stroke-width:6;stroke-linecap:butt;stroke-linejoin:miter;stroke:#ffffff;stroke-opacity:1;stroke-miterlimit:10;" d="M 299.528611 53.25974 L 280.918741 185.309291 C 279.596324 194.669634 273.723023 205.189863 265.500401 210.006709 C 262.61177 211.713291 259.361138 212.548112 255.770667 212.548112 L 142.020699 212.548112 C 142.552621 208.787722 144.746798 190.909244 147.672367 167.046647 L 138.467167 167.046647 L 132.098883 212.548112 L 74.917305 212.548112 L 81.211711 167.046647 L 3.447721 167.046647 L 26.416393 3.000532 L 83.597971 3.000532 L 69.531598 104.176463 C 68.933186 108.173263 68.933186 111.756347 69.531598 114.962652 C 70.13001 118.16157 72.922599 119.749947 77.909364 119.749947 L 88.089754 119.749947 L 104.261649 3.000532 L 161.443227 3.000532 L 145.101412 119.749947 L 153.442239 119.749947 C 160.246403 63.787356 167.58249 3.392085 167.78196 3.000532 L 255.940586 3.000532 C 280.032205 3.000532 303.096919 28.06734 299.550774 53.25974 Z M 228.827358 149.677928 L 240.507471 65.863328 C 240.706941 63.868622 240.906412 61.918243 241.11327 60.019578 C 241.312741 58.120913 241.157597 56.480822 240.662614 55.077139 C 240.160244 53.680845 239.258932 52.543124 237.973455 51.641812 C 236.673202 50.7405 234.73021 50.289845 232.129705 50.289845 L 221.949315 50.289845 L 205.777419 165.236636 L 215.957809 165.236636 C 220.951962 165.236636 224.187819 163.640871 225.687542 160.449341 C 227.187266 157.257811 228.228946 153.66734 228.827358 149.67054 Z M 228.827358 149.677928 " transform="matrix(0.528743,0,0,0.528743,0.348916,0.0970826)"/></g><g style="fill:#605a5a;fill-opacity:1;"><g transform="translate(181.155766, 80.185917)"><path style="stroke:none" d="M 23.015625 0 L 20.75 -7.421875 L 9.390625 -7.421875 L 7.125 0 L 0 0 L 11 -31.3125 L 19.09375 -31.3125 L 30.140625 0 Z M 19.171875 -12.96875 C 17.085938 -19.695312 15.910156 -23.5 15.640625 -24.375 C 15.378906 -25.257812 15.191406 -25.957031 15.078125 -26.46875 C 14.609375 -24.65625 13.265625 -20.15625 11.046875 -12.96875 Z M 19.171875 -12.96875 "/></g></g><g style="fill:#605a5a;fill-opacity:1;"><g transform="translate(211.292528, 80.185917)"><path style="stroke:none" d="M 24.171875 -23.84375 L 24.171875 -20.546875 L 20.4375 -19.578125 C 21.113281 -18.515625 21.453125 -17.320312 21.453125 -16 C 21.453125 -13.4375 20.5625 -11.441406 18.78125 -10.015625 C 17 -8.585938 14.519531 -7.875 11.34375 -7.875 L 10.171875 -7.9375 L 9.21875 -8.046875 C 8.550781 -7.535156 8.21875 -6.960938 8.21875 -6.328125 C 8.21875 -5.390625 9.410156 -4.921875 11.796875 -4.921875 L 15.84375 -4.921875 C 18.46875 -4.921875 20.460938 -4.359375 21.828125 -3.234375 C 23.203125 -2.117188 23.890625 -0.472656 23.890625 1.703125 C 23.890625 4.492188 22.726562 6.65625 20.40625 8.1875 C 18.082031 9.726562 14.742188 10.5 10.390625 10.5 C 7.054688 10.5 4.507812 9.914062 2.75 8.75 C 1 7.59375 0.125 5.96875 0.125 3.875 C 0.125 2.445312 0.570312 1.25 1.46875 0.28125 C 2.363281 -0.6875 3.679688 -1.378906 5.421875 -1.796875 C 4.753906 -2.078125 4.171875 -2.539062 3.671875 -3.1875 C 3.171875 -3.832031 2.921875 -4.519531 2.921875 -5.25 C 2.921875 -6.15625 3.179688 -6.910156 3.703125 -7.515625 C 4.234375 -8.117188 5 -8.710938 6 -9.296875 C 4.738281 -9.835938 3.742188 -10.703125 3.015625 -11.890625 C 2.285156 -13.085938 1.921875 -14.5 1.921875 -16.125 C 1.921875 -18.726562 2.765625 -20.738281 4.453125 -22.15625 C 6.148438 -23.582031 8.570312 -24.296875 11.71875 -24.296875 C 12.382812 -24.296875 13.175781 -24.234375 14.09375 -24.109375 C 15.007812 -23.992188 15.59375 -23.90625 15.84375 -23.84375 Z M 5.765625 3.375 C 5.765625 4.269531 6.191406 4.972656 7.046875 5.484375 C 7.910156 5.992188 9.117188 6.25 10.671875 6.25 C 13.003906 6.25 14.828125 5.925781 16.140625 5.28125 C 17.460938 4.644531 18.125 3.773438 18.125 2.671875 C 18.125 1.773438 17.734375 1.15625 16.953125 0.8125 C 16.171875 0.46875 14.960938 0.296875 13.328125 0.296875 L 9.96875 0.296875 C 8.769531 0.296875 7.769531 0.578125 6.96875 1.140625 C 6.164062 1.703125 5.765625 2.445312 5.765625 3.375 Z M 8.125 -16.046875 C 8.125 -14.742188 8.414062 -13.71875 9 -12.96875 C 9.59375 -12.21875 10.5 -11.84375 11.71875 -11.84375 C 12.9375 -11.84375 13.828125 -12.21875 14.390625 -12.96875 C 14.960938 -13.71875 15.25 -14.742188 15.25 -16.046875 C 15.25 -18.910156 14.070312 -20.34375 11.71875 -20.34375 C 9.320312 -20.34375 8.125 -18.910156 8.125 -16.046875 Z M 8.125 -16.046875 "/></g></g><g style="fill:#605a5a;fill-opacity:1;"><g transform="translate(235.969268, 80.185917)"><path style="stroke:none" d="M 13.296875 -19.671875 C 11.910156 -19.671875 10.828125 -19.234375 10.046875 -18.359375 C 9.265625 -17.484375 8.816406 -16.242188 8.703125 -14.640625 L 17.828125 -14.640625 C 17.804688 -16.242188 17.390625 -17.484375 16.578125 -18.359375 C 15.765625 -19.234375 14.671875 -19.671875 13.296875 -19.671875 Z M 14.203125 0.421875 C 10.367188 0.421875 7.367188 -0.632812 5.203125 -2.75 C 3.046875 -4.875 1.96875 -7.875 1.96875 -11.75 C 1.96875 -15.75 2.960938 -18.835938 4.953125 -21.015625 C 6.953125 -23.203125 9.71875 -24.296875 13.25 -24.296875 C 16.613281 -24.296875 19.234375 -23.332031 21.109375 -21.40625 C 22.992188 -19.488281 23.9375 -16.835938 23.9375 -13.453125 L 23.9375 -10.296875 L 8.546875 -10.296875 C 8.617188 -8.453125 9.164062 -7.007812 10.1875 -5.96875 C 11.21875 -4.9375 12.65625 -4.421875 14.5 -4.421875 C 15.9375 -4.421875 17.296875 -4.566406 18.578125 -4.859375 C 19.859375 -5.160156 21.195312 -5.640625 22.59375 -6.296875 L 22.59375 -1.265625 C 21.457031 -0.691406 20.238281 -0.269531 18.9375 0 C 17.644531 0.28125 16.066406 0.421875 14.203125 0.421875 Z M 18.34375 -26.46875 C 16.113281 -27.789062 14.453125 -29.046875 13.359375 -30.234375 C 12.242188 -29.078125 10.613281 -27.820312 8.46875 -26.46875 L 4.140625 -26.46875 L 4.140625 -27.046875 C 6.828125 -29.734375 8.644531 -31.875 9.59375 -33.46875 L 17.21875 -33.46875 C 17.65625 -32.726562 18.414062 -31.722656 19.5 -30.453125 C 20.59375 -29.179688 21.648438 -28.046875 22.671875 -27.046875 L 22.671875 -26.46875 Z M 18.34375 -26.46875 "/></g></g><g style="fill:#605a5a;fill-opacity:1;"><g transform="translate(261.776398, 80.185917)"><path style="stroke:none" d="M 25.421875 0 L 18.921875 0 L 18.921875 -13.921875 C 18.921875 -15.648438 18.613281 -16.941406 18 -17.796875 C 17.394531 -18.660156 16.421875 -19.09375 15.078125 -19.09375 C 13.253906 -19.09375 11.9375 -18.484375 11.125 -17.265625 C 10.320312 -16.046875 9.921875 -14.03125 9.921875 -11.21875 L 9.921875 0 L 3.40625 0 L 3.40625 -23.84375 L 8.390625 -23.84375 L 9.265625 -20.796875 L 9.625 -20.796875 C 10.34375 -21.953125 11.335938 -22.820312 12.609375 -23.40625 C 13.890625 -24 15.335938 -24.296875 16.953125 -24.296875 C 19.734375 -24.296875 21.835938 -23.546875 23.265625 -22.046875 C 24.703125 -20.546875 25.421875 -18.378906 25.421875 -15.546875 Z M 25.421875 0 "/></g></g><g style="fill:#605a5a;fill-opacity:1;"><g transform="translate(290.484166, 80.185917)"><path style="stroke:none" d="M 13.09375 0.421875 C 5.675781 0.421875 1.96875 -3.648438 1.96875 -11.796875 C 1.96875 -15.847656 2.972656 -18.941406 4.984375 -21.078125 C 7.003906 -23.222656 9.898438 -24.296875 13.671875 -24.296875 C 16.429688 -24.296875 18.90625 -23.753906 21.09375 -22.671875 L 19.171875 -17.640625 C 18.148438 -18.054688 17.195312 -18.394531 16.3125 -18.65625 C 15.4375 -18.914062 14.554688 -19.046875 13.671875 -19.046875 C 10.285156 -19.046875 8.59375 -16.644531 8.59375 -11.84375 C 8.59375 -7.175781 10.285156 -4.84375 13.671875 -4.84375 C 14.921875 -4.84375 16.078125 -5.007812 17.140625 -5.34375 C 18.210938 -5.675781 19.28125 -6.195312 20.34375 -6.90625 L 20.34375 -1.34375 C 19.289062 -0.675781 18.226562 -0.21875 17.15625 0.03125 C 16.082031 0.289062 14.726562 0.421875 13.09375 0.421875 Z M 13.09375 0.421875 "/></g></g><g style="fill:#605a5a;fill-opacity:1;"><g transform="translate(312.942772, 80.185917)"><path style="stroke:none" d="M 3.140625 -30.015625 C 3.140625 -32.128906 4.316406 -33.1875 6.671875 -33.1875 C 9.035156 -33.1875 10.21875 -32.128906 10.21875 -30.015625 C 10.21875 -29.003906 9.921875 -28.21875 9.328125 -27.65625 C 8.742188 -27.09375 7.859375 -26.8125 6.671875 -26.8125 C 4.316406 -26.8125 3.140625 -27.878906 3.140625 -30.015625 Z M 9.921875 0 L 3.40625 0 L 3.40625 -23.84375 L 9.921875 -23.84375 Z M 9.921875 0 "/></g></g><g style="fill:#605a5a;fill-opacity:1;"><g transform="translate(326.272906, 80.185917)"><path style="stroke:none" d="M 18.5625 0 L 17.296875 -3.25 L 17.125 -3.25 C 16.03125 -1.863281 14.90625 -0.90625 13.75 -0.375 C 12.59375 0.15625 11.082031 0.421875 9.21875 0.421875 C 6.925781 0.421875 5.117188 -0.226562 3.796875 -1.53125 C 2.484375 -2.84375 1.828125 -4.707031 1.828125 -7.125 C 1.828125 -9.65625 2.710938 -11.519531 4.484375 -12.71875 C 6.253906 -13.925781 8.925781 -14.59375 12.5 -14.71875 L 16.640625 -14.84375 L 16.640625 -15.890625 C 16.640625 -18.304688 15.398438 -19.515625 12.921875 -19.515625 C 11.015625 -19.515625 8.773438 -18.941406 6.203125 -17.796875 L 4.046875 -22.1875 C 6.796875 -23.625 9.84375 -24.34375 13.1875 -24.34375 C 16.382812 -24.34375 18.835938 -23.644531 20.546875 -22.25 C 22.253906 -20.851562 23.109375 -18.734375 23.109375 -15.890625 L 23.109375 0 Z M 16.640625 -11.046875 L 14.125 -10.96875 C 12.226562 -10.90625 10.816406 -10.5625 9.890625 -9.9375 C 8.972656 -9.3125 8.515625 -8.359375 8.515625 -7.078125 C 8.515625 -5.242188 9.566406 -4.328125 11.671875 -4.328125 C 13.171875 -4.328125 14.375 -4.757812 15.28125 -5.625 C 16.1875 -6.5 16.640625 -7.65625 16.640625 -9.09375 Z M 16.640625 -11.046875 "/></g></g><g style="fill:#605a5a;fill-opacity:1;"><g transform="translate(352.655894, 80.185917)"><path style="stroke:none" d=""/></g></g><g style="fill:#605a5a;fill-opacity:1;"><g transform="translate(364.002517, 80.185917)"><path style="stroke:none" d="M 24.25 -6.46875 L 20.5 -6.46875 L 20.5 0 L 14.0625 0 L 14.0625 -6.46875 L 0.75 -6.46875 L 0.75 -11.046875 L 14.421875 -31.1875 L 20.5 -31.1875 L 20.5 -11.578125 L 24.25 -11.578125 Z M 14.0625 -11.578125 L 14.0625 -16.875 C 14.0625 -17.757812 14.09375 -19.039062 14.15625 -20.71875 C 14.226562 -22.394531 14.285156 -23.367188 14.328125 -23.640625 L 14.171875 -23.640625 C 13.640625 -22.472656 13.003906 -21.332031 12.265625 -20.21875 L 6.546875 -11.578125 Z M 14.0625 -11.578125 "/></g></g><g style="fill:#605a5a;fill-opacity:1;"><g transform="translate(388.935188, 80.185917)"><path style="stroke:none" d="M 29.796875 -15.890625 C 29.796875 -10.753906 28.332031 -6.820312 25.40625 -4.09375 C 22.488281 -1.363281 18.269531 0 12.75 0 L 3.921875 0 L 3.921875 -31.1875 L 13.71875 -31.1875 C 18.8125 -31.1875 22.765625 -29.84375 25.578125 -27.15625 C 28.390625 -24.46875 29.796875 -20.710938 29.796875 -15.890625 Z M 22.9375 -15.71875 C 22.9375 -22.414062 19.976562 -25.765625 14.0625 -25.765625 L 10.53125 -25.765625 L 10.53125 -5.46875 L 13.375 -5.46875 C 19.75 -5.46875 22.9375 -8.882812 22.9375 -15.71875 Z M 22.9375 -15.71875 "/></g></g></g></svg>