<svg xmlns="http://www.w3.org/2000/svg" xmlns:xlink="http://www.w3.org/1999/xlink" width="935" zoomAndPan="magnify" viewBox="0 0 701.25 329.999987" height="440" preserveAspectRatio="xMidYMid meet" version="1.2"><defs><clipPath id="33900ebdc6"><path d="M 62.933594 17.644531 L 179 17.644531 L 179 221 L 62.933594 221 Z M 62.933594 17.644531 "/></clipPath><clipPath id="9766e39eb2"><path d="M 77 181 L 308 181 L 308 305.335938 L 77 305.335938 Z M 77 181 "/></clipPath><clipPath id="6fcd468af3"><path d="M 203 17.644531 L 319 17.644531 L 319 221 L 203 221 Z M 203 17.644531 "/></clipPath></defs><g id="c38d757131"><g clip-rule="nonzero" clip-path="url(#33900ebdc6)"><path style=" stroke:none;fill-rule:nonzero;fill:#343434;fill-opacity:1;" d="M 62.933594 220.503906 L 62.933594 84.957031 L 178.195312 17.644531 L 178.195312 29.632812 L 83.21875 84.957031 L 173.582031 137.515625 L 164.363281 144.894531 L 74.917969 91.414062 L 74.917969 207.59375 Z M 62.933594 220.503906 "/></g><g clip-rule="nonzero" clip-path="url(#9766e39eb2)"><path style=" stroke:none;fill-rule:nonzero;fill:#343434;fill-opacity:1;" d="M 77.6875 239.867188 L 192.949219 305.335938 L 307.285156 239.867188 L 294.378906 232.492188 L 199.402344 287.816406 L 199.402344 181.777344 L 186.492188 181.777344 L 186.492188 287.816406 L 85.984375 232.492188 Z M 77.6875 239.867188 "/></g><g clip-rule="nonzero" clip-path="url(#6fcd468af3)"><path style=" stroke:none;fill-rule:nonzero;fill:#ff6d4d;fill-opacity:1;" d="M 203.089844 17.644531 L 318.351562 84.957031 L 318.351562 220.503906 L 307.285156 214.972656 L 307.285156 96.023438 L 221.53125 148.582031 L 213.234375 141.203125 L 301.753906 87.1875 L 203.089844 29.632812 Z M 203.089844 17.644531 "/></g><path style=" stroke:none;fill-rule:nonzero;fill:#343434;fill-opacity:1;" d="M 355.679688 196.53125 L 355.679688 77.027344 L 369.289062 77.027344 L 369.289062 196.53125 Z M 362.648438 196.53125 L 362.648438 184.582031 L 435.679688 184.582031 L 435.679688 196.53125 Z M 362.648438 140.265625 L 362.648438 128.3125 L 429.703125 128.3125 L 429.703125 140.265625 Z M 362.648438 88.976562 L 362.648438 77.027344 L 434.351562 77.027344 L 434.351562 88.976562 Z M 461.519531 196.53125 L 461.519531 77.027344 L 475.132812 77.027344 L 475.132812 196.53125 Z M 468.492188 145.242188 L 468.492188 133.292969 L 532.890625 133.292969 L 532.890625 145.242188 Z M 468.492188 88.976562 L 468.492188 77.027344 L 537.539062 77.027344 L 537.539062 88.976562 Z M 468.492188 88.976562 "/><path style=" stroke:none;fill-rule:nonzero;fill:#ff6d4d;fill-opacity:1;" d="M 602.914062 196.53125 L 602.914062 164.996094 L 603.246094 161.675781 L 603.246094 93.460938 L 607.726562 93.460938 L 557.269531 162.503906 L 552.789062 157.027344 L 632.457031 157.027344 L 632.457031 168.976562 L 543.496094 168.976562 L 543.496094 158.6875 L 603.578125 77.027344 L 617.1875 77.027344 L 617.1875 196.53125 Z M 602.914062 196.53125 "/><path style=" stroke:none;fill-rule:nonzero;fill:#ff6d4d;fill-opacity:1;" d="M 353.574219 277.675781 L 365.46875 244.480469 L 371.554688 244.480469 L 360.628906 277.675781 Z M 377.917969 277.675781 L 367.039062 244.480469 L 373.402344 244.480469 L 385.296875 277.675781 Z M 359.847656 264.8125 L 378.472656 264.8125 L 378.472656 270.34375 L 359.847656 270.34375 Z M 402.886719 278.136719 C 399.289062 278.136719 396.199219 277.429688 393.617188 276.015625 C 391.035156 274.601562 389.039062 272.617188 387.625 270.066406 C 386.242188 267.515625 385.550781 264.535156 385.550781 261.121094 C 385.550781 257.742188 386.257812 254.773438 387.671875 252.226562 C 389.082031 249.644531 391.035156 247.628906 393.527344 246.183594 C 396.046875 244.742188 398.964844 244.019531 402.285156 244.019531 C 405.019531 244.019531 407.464844 244.511719 409.617188 245.492188 C 411.796875 246.476562 413.550781 247.828125 414.871094 249.550781 C 416.222656 251.242188 417.023438 253.207031 417.269531 255.453125 L 410.167969 255.453125 C 409.863281 253.640625 409 252.226562 407.589844 251.210938 C 406.203125 250.164062 404.46875 249.644531 402.378906 249.644531 C 400.441406 249.644531 398.75 250.105469 397.308594 251.027344 C 395.859375 251.917969 394.738281 253.207031 393.941406 254.898438 C 393.140625 256.589844 392.742188 258.617188 392.742188 260.984375 C 392.742188 263.441406 393.140625 265.550781 393.941406 267.300781 C 394.738281 269.023438 395.90625 270.34375 397.445312 271.265625 C 399.011719 272.15625 400.933594 272.601562 403.207031 272.601562 C 405.050781 272.601562 406.621094 272.371094 407.910156 271.910156 C 409.203125 271.449219 410.183594 270.804688 410.863281 269.976562 L 417.59375 272.648438 C 415.808594 274.433594 413.734375 275.800781 411.367188 276.753906 C 409.03125 277.675781 406.203125 278.136719 402.886719 278.136719 Z M 410.492188 272.648438 L 410.492188 263.519531 L 411.921875 264.949219 L 403.160156 264.949219 L 403.160156 259.507812 L 417.59375 259.507812 L 417.59375 272.648438 Z M 421.5 277.675781 L 421.5 244.480469 L 428.601562 244.480469 L 428.601562 277.675781 Z M 424.820312 277.675781 L 424.820312 272.234375 L 446.210938 272.234375 L 446.210938 277.675781 Z M 424.820312 263.382812 L 424.820312 258.035156 L 444.597656 258.035156 L 444.597656 263.382812 Z M 424.820312 249.917969 L 424.820312 244.480469 L 445.660156 244.480469 L 445.660156 249.917969 Z M 424.773438 241.113281 L 430.582031 233.875 L 437.777344 233.875 L 443.585938 241.113281 L 437.820312 241.113281 L 431.320312 235.257812 L 437.039062 235.257812 L 430.535156 241.113281 Z M 450.359375 277.675781 L 450.359375 244.480469 L 459.535156 244.480469 L 474.289062 273.800781 L 472.027344 274.355469 L 472.027344 244.480469 L 478.945312 244.480469 L 478.945312 277.675781 L 469.769531 277.675781 L 455.015625 248.351562 L 457.277344 247.796875 L 457.277344 277.675781 Z M 499.265625 278.136719 C 496.867188 278.136719 494.652344 277.71875 492.625 276.890625 C 490.597656 276.03125 488.828125 274.832031 487.324219 273.292969 C 485.847656 271.757812 484.695312 269.945312 483.867188 267.855469 C 483.035156 265.734375 482.621094 263.429688 482.621094 260.9375 C 482.621094 258.449219 483.019531 256.175781 483.820312 254.113281 C 484.648438 252.054688 485.800781 250.273438 487.277344 248.765625 C 488.785156 247.230469 490.550781 246.0625 492.578125 245.261719 C 494.609375 244.433594 496.835938 244.019531 499.265625 244.019531 C 502 244.019531 504.460938 244.554688 506.640625 245.632812 C 508.855469 246.675781 510.652344 248.167969 512.035156 250.105469 C 513.449219 252.007812 514.3125 254.253906 514.617188 256.835938 L 507.703125 256.835938 C 507.304688 254.46875 506.335938 252.6875 504.796875 251.488281 C 503.261719 250.257812 501.429688 249.644531 499.308594 249.644531 C 497.4375 249.644531 495.777344 250.089844 494.332031 250.980469 C 492.917969 251.871094 491.8125 253.160156 491.011719 254.851562 C 490.214844 256.511719 489.8125 258.527344 489.8125 260.890625 C 489.8125 263.289062 490.214844 265.363281 491.011719 267.117188 C 491.839844 268.835938 492.980469 270.175781 494.421875 271.128906 C 495.867188 272.050781 497.527344 272.511719 499.402344 272.511719 C 501.402344 272.511719 503.167969 271.910156 504.703125 270.710938 C 506.242188 269.515625 507.242188 267.730469 507.703125 265.363281 L 514.710938 265.363281 C 514.3125 267.945312 513.402344 270.207031 511.988281 272.140625 C 510.578125 274.046875 508.777344 275.523438 506.59375 276.566406 C 504.414062 277.613281 501.96875 278.136719 499.265625 278.136719 Z M 518.121094 277.675781 L 518.121094 244.480469 L 525.222656 244.480469 L 525.222656 277.675781 Z M 528.628906 277.675781 L 540.523438 244.480469 L 546.609375 244.480469 L 535.683594 277.675781 Z M 552.972656 277.675781 L 542.089844 244.480469 L 548.453125 244.480469 L 560.347656 277.675781 Z M 534.898438 264.8125 L 553.527344 264.8125 L 553.527344 270.34375 L 534.898438 270.34375 Z M 534.898438 264.8125 "/><path style=" stroke:none;fill-rule:nonzero;fill:#343434;fill-opacity:1;" d="M 581.8125 277.675781 L 581.8125 233.265625 L 564.476562 233.265625 L 564.476562 224.5625 L 610.507812 224.5625 L 610.507812 233.265625 L 593.171875 233.265625 L 593.171875 277.675781 Z M 615.957031 277.675781 L 615.957031 224.5625 L 627.316406 224.5625 L 627.316406 277.675781 Z M 615.957031 277.675781 "/></g></svg>